<?xml version="1.0" standalone="no"?> <!DOCTYPE svg PUBLIC "-//W3C//DTD SVG 20010904//EN" "http://www.w3.org/TR/2001/REC-SVG-20010904/DTD/svg10.dtd"> <svg version="1.0" xmlns="http://www.w3.org/2000/svg" width="600.000000pt" height="600.000000pt" viewBox="0 0 600.000000 600.000000" preserveAspectRatio="xMidYMid meet"> <g transform="translate(0.000000,600.000000) scale(0.066667,-0.066667)" fill="#1f5ad1" stroke="none"> <path d="M5728 8907 c-431 -497 -879 -773 -1850 -1140 -1003 -378 -1412 -643 -1758 -1139 -255 -365 -321 -811 -155 -1036 16 -22 30 -49 30 -59 0 -38 238 -298 273 -298 15 0 16 13 19 293 4 309 54 457 260 766 86 128 395 471 425 471 7 0 66 35 130 77 117 77 369 210 438 231 342 102 1124 586 1536 951 288 256 774 864 774 970 0 29 -55 -10 -122 -87z"/> <path d="M351 7597 c4 -12 35 -61 67 -109 337 -496 488 -1106 542 -2178 43 -851 111 -1227 293 -1597 247 -505 607 -831 960 -871 172 -19 496 60 585 144 17 16 38 29 47 29 15 0 65 48 65 63 0 4 -42 13 -94 18 -697 77 -1187 729 -1301 1734 -61 531 -124 867 -224 1190 -187 605 -437 1065 -816 1499 -81 93 -146 134 -124 78z"/> <path d="M4810 7131 c-110 -26 -246 -98 -334 -175 -157 -138 -351 -491 -270 -491 13 0 24 5 24 11 0 6 35 30 79 52 362 185 771 174 1219 -33 57 -26 118 -54 135 -61 29 -12 205 -121 318 -196 66 -45 393 -373 479 -482 32 -40 152 -163 268 -273 616 -591 1262 -977 1905 -1141 337 -86 459 -85 228 1 -626 235 -1108 642 -1838 1555 -253 317 -625 697 -809 827 -472 334 -1032 496 -1404 406z"/> <path d="M4292 7116 c-171 -46 -528 -208 -752 -340 -443 -264 -861 -748 -955 -1109 -35 -134 -28 -147 91 -147 206 0 256 50 484 485 304 579 630 883 1156 1078 143 52 127 74 -24 33z"/> <path d="M4571 6350 c-22 -6 -25 -18 -18 -62 36 -216 159 -298 517 -347 682 -94 1014 -253 1412 -676 243 -259 229 -186 -23 120 -478 579 -1128 953 -1681 968 -99 3 -193 2 -207 -3z"/> <path d="M4200 5705 c-336 -86 -546 -404 -599 -907 -9 -85 -24 -220 -32 -298 -48 -441 -198 -637 -490 -637 l-139 0 0 -145 c0 -168 -6 -163 173 -163 306 0 546 176 676 495 47 116 111 401 111 494 0 281 134 766 211 766 18 0 18 -56 0 -67 -33 -20 -46 -252 -51 -942 l-5 -731 159 0 159 0 -6 440 c-6 514 -1 533 96 397 62 -87 143 -185 427 -519 103 -121 207 -246 231 -277 l43 -56 208 0 c114 0 208 4 208 8 0 5 -52 67 -115 139 -162 184 -181 206 -290 339 -54 65 -140 168 -192 229 -94 108 -104 140 -47 140 16 0 73 20 127 44 520 236 506 1002 -23 1232 -100 43 -693 57 -840 19z m711 -297 c284 -137 275 -611 -14 -728 -335 -136 -626 208 -473 559 77 176 307 256 487 169z m-716 -18 c-5 -5 -14 -5 -20 0 -5 6 -1 10 10 10 11 0 16 -4 10 -10z"/> <path d="M1718 5551 c-12 -67 0 -321 24 -503 93 -736 443 -1392 865 -1618 l79 -42 29 67 c88 198 52 279 -271 610 -483 496 -636 816 -683 1429 -9 126 -28 150 -43 57z"/> <path d="M5955 5064 c0 -5 45 -52 100 -103 489 -458 476 -1337 -32 -2178 -326 -541 -552 -1091 -660 -1607 -92 -443 -114 -1158 -35 -1173 20 -4 27 10 34 67 63 520 174 882 405 1319 123 234 206 367 534 857 441 659 606 1060 645 1568 50 659 -148 1052 -612 1212 -85 30 -379 59 -379 38z m490 -2029 c-5 -5 -10 -1 -10 10 0 11 5 16 10 10 6 -5 6 -14 0 -20z"/> <path d="M5888 4644 c-198 -86 -228 -281 -124 -796 87 -432 -36 -1014 -292 -1392 -65 -96 -43 -125 30 -39 499 586 734 1700 469 2217 -15 31 -32 33 -83 10z"/> <path d="M4350 2990 c-29 -12 -167 -79 -307 -148 -607 -297 -1113 -360 -1601 -200 -110 36 -157 36 -87 0 52 -27 217 -84 375 -128 664 -189 1613 -57 1981 275 l82 73 -52 54 c-94 98 -262 130 -391 74z"/> <path d="M5123 2914 c-193 -476 -780 -790 -1478 -791 -236 -1 -332 11 -607 75 -968 224 -2000 181 -2701 -110 -346 -145 -390 -191 -110 -116 230 62 517 88 838 77 448 -14 605 -45 1583 -301 736 -194 1155 -215 1675 -83 668 170 1002 581 906 1118 -38 216 -60 243 -106 131z m-780 -979 c5 -8 2 -15 -7 -15 -9 0 -16 7 -16 15 0 8 3 15 7 15 3 0 10 -7 16 -15z"/> </g> </svg>