<?xml version="1.0" standalone="no"?>
<!DOCTYPE svg PUBLIC "-//W3C//DTD SVG 20010904//EN"
 "http://www.w3.org/TR/2001/REC-SVG-20010904/DTD/svg10.dtd">
<svg version="1.0" xmlns="http://www.w3.org/2000/svg"
 width="1269.000000pt" height="714.000000pt" viewBox="0 0 1269.000000 714.000000"
 preserveAspectRatio="xMidYMid meet">
<g transform="translate(0.000000,714.000000) scale(0.100000,-0.100000)"
fill="#000000" stroke="none">
<path d="M2440 6815 l-25 -14 -55 -1 -55 -1 -25 -14 c-14 -8 -44 -14 -66 -15
l-42 0 -12 -15 c-7 -8 -27 -15 -44 -15 -17 0 -40 -7 -50 -15 -11 -8 -26 -15
-34 -15 -7 0 -20 -7 -28 -15 -9 -8 -26 -15 -39 -15 -12 0 -25 -7 -29 -15 -3
-8 -12 -15 -21 -15 -8 0 -34 -13 -57 -30 -22 -16 -47 -30 -53 -30 -7 0 -15 -7
-19 -15 -3 -8 -14 -15 -24 -15 l-18 0 -110 -107 c-111 -109 -174 -182 -174
-201 0 -6 -6 -15 -13 -19 -14 -9 -77 -88 -77 -97 0 -3 -13 -25 -30 -48 -16
-22 -30 -48 -30 -58 0 -9 -7 -25 -15 -36 -8 -10 -15 -26 -15 -35 0 -9 -7 -22
-15 -29 -8 -7 -15 -22 -15 -34 0 -12 -7 -31 -15 -42 -8 -10 -15 -37 -15 -59 0
-22 -7 -51 -15 -65 -8 -14 -14 -44 -15 -68 0 -23 -7 -59 -15 -79 l-15 -35 0
-148 0 -148 15 -35 c8 -20 15 -53 15 -74 0 -21 7 -47 15 -57 l15 -20 0 -47 0
-47 15 -12 c8 -7 15 -26 15 -42 l0 -29 15 -5 15 -6 0 -27 c0 -15 7 -36 15 -47
8 -10 15 -27 15 -38 0 -10 13 -35 28 -55 16 -20 39 -56 51 -81 39 -78 131
-219 208 -322 24 -31 43 -60 43 -65 0 -4 19 -28 41 -53 57 -62 109 -126 109
-133 0 -3 18 -25 41 -48 23 -24 44 -50 48 -60 3 -9 34 -47 69 -83 34 -36 62
-70 62 -76 0 -5 33 -43 73 -83 39 -41 88 -94 108 -118 20 -24 57 -69 82 -99
26 -30 65 -83 88 -117 23 -35 46 -63 50 -63 5 0 9 -8 9 -17 0 -10 14 -31 30
-47 17 -16 30 -37 30 -46 0 -9 5 -21 11 -27 12 -12 33 -46 48 -80 5 -11 15
-24 20 -28 6 -3 11 -14 11 -25 0 -10 7 -20 15 -24 8 -3 15 -16 15 -29 0 -13 7
-32 15 -43 8 -10 15 -26 15 -35 0 -9 7 -22 15 -29 8 -7 15 -24 15 -39 0 -14 7
-39 15 -55 8 -15 15 -40 15 -54 0 -14 7 -33 16 -43 25 -27 37 -127 38 -309 l1
-165 -14 -90 c-8 -49 -21 -96 -28 -103 -7 -7 -13 -26 -13 -41 0 -16 -7 -34
-15 -41 -8 -7 -15 -23 -15 -35 0 -13 -7 -25 -15 -29 -8 -3 -15 -15 -15 -26 0
-11 -7 -23 -15 -26 -8 -4 -15 -12 -15 -20 0 -34 -178 -254 -206 -254 -3 0 -23
-12 -43 -27 -47 -36 -65 -47 -128 -78 -29 -15 -55 -30 -58 -36 -4 -5 -16 -9
-28 -9 -12 0 -31 -7 -41 -15 l-20 -15 -42 0 -42 0 -12 -15 -12 -15 -167 0
-166 1 -19 14 -20 15 -45 0 -46 1 -19 14 c-11 8 -27 15 -37 15 -9 0 -19 7 -23
15 -3 8 -14 15 -24 15 -11 0 -25 7 -32 15 -7 8 -21 15 -32 15 -10 0 -21 7 -24
15 -4 8 -10 15 -15 15 -11 0 -97 66 -124 94 -65 70 -165 208 -165 228 0 5 -6
22 -14 36 -26 52 -46 130 -46 180 l0 50 -15 12 -15 12 0 187 1 186 14 25 c8
14 14 46 15 71 0 26 7 60 15 75 8 16 15 43 15 59 0 17 7 39 15 49 8 11 15 26
15 33 0 8 5 19 11 26 9 10 75 109 104 155 35 55 232 202 271 202 12 0 27 7 34
15 7 8 24 15 39 15 15 0 32 5 39 12 l12 12 60 -2 59 -2 32 28 32 28 -41 42
-41 42 -21 0 c-11 0 -20 4 -20 9 0 5 -15 13 -32 16 -18 4 -38 11 -44 16 -6 5
-67 14 -136 20 l-126 11 -51 -11 c-29 -6 -73 -11 -99 -11 l-47 -1 -19 -14
c-11 -8 -35 -15 -53 -15 -18 0 -33 -4 -33 -10 0 -5 -12 -13 -26 -16 -29 -7
-130 -59 -154 -79 -8 -6 -37 -22 -63 -35 l-48 -22 -104 -107 c-58 -58 -105
-110 -105 -114 0 -5 -13 -26 -30 -47 -16 -21 -30 -41 -30 -46 0 -4 -6 -15 -14
-23 -26 -30 -106 -195 -106 -221 0 -14 -7 -34 -15 -44 -8 -11 -15 -35 -15 -53
0 -19 -6 -44 -14 -56 l-14 -22 -7 -100 c-8 -121 -8 -137 1 -247 l6 -88 14 -11
14 -11 0 -42 c0 -22 7 -50 15 -60 8 -11 15 -30 15 -42 0 -12 7 -27 15 -34 8
-7 15 -19 15 -28 0 -19 38 -100 51 -108 5 -3 9 -14 9 -25 0 -10 5 -19 10 -19
6 0 14 -8 17 -17 4 -10 25 -43 48 -73 22 -30 48 -66 57 -80 27 -44 185 -190
205 -190 6 0 28 -12 50 -28 57 -39 76 -51 93 -58 8 -3 22 -10 30 -15 8 -5 25
-13 37 -18 11 -6 24 -15 28 -20 3 -6 16 -11 29 -11 12 0 31 -7 42 -15 10 -8
31 -15 45 -15 15 0 32 -7 39 -15 7 -8 25 -15 40 -15 15 0 33 -7 40 -15 7 -8
27 -15 44 -15 17 -1 42 -7 56 -15 l25 -14 70 -1 c39 -1 88 -7 110 -15 l40 -15
221 0 221 0 43 15 c23 8 71 15 105 15 l63 0 28 15 c16 8 48 15 70 15 l42 0 12
15 c7 8 23 15 35 15 12 0 28 7 35 15 l12 15 32 0 c18 0 41 7 52 15 10 8 31 15
45 15 15 0 32 7 39 15 7 8 20 15 30 15 10 0 23 7 30 15 7 8 20 15 30 15 10 0
23 7 30 15 7 8 17 15 22 15 6 0 30 14 55 30 24 17 50 30 56 30 7 0 24 13 37
30 14 16 29 29 33 30 41 2 377 328 377 365 0 7 13 25 30 41 16 16 30 38 30 49
1 11 14 31 30 45 l30 24 0 21 c0 12 7 30 15 41 8 10 15 29 15 40 0 12 7 27 15
34 8 7 15 23 15 35 0 13 7 25 15 29 l15 5 0 49 0 50 15 12 15 12 0 37 c0 21 7
46 15 57 l14 19 1 65 c0 36 7 87 15 114 19 62 19 151 0 241 -8 38 -15 100 -15
136 l0 65 -15 20 c-8 10 -15 37 -15 59 0 22 -7 49 -15 59 -8 11 -15 36 -15 57
l0 37 -15 12 c-8 7 -15 23 -15 35 0 12 -7 28 -15 35 -8 7 -15 23 -15 36 0 12
-7 29 -15 38 -8 8 -15 26 -15 41 l0 26 -15 5 c-8 4 -15 14 -15 24 0 10 -7 23
-15 30 -8 7 -15 20 -15 30 0 10 -7 23 -15 30 -8 7 -15 17 -15 22 0 6 -13 27
-30 48 -16 21 -30 44 -30 51 0 7 -7 19 -15 28 -8 9 -55 70 -105 136 -190 254
-274 359 -370 465 -28 30 -50 60 -50 67 0 6 -6 16 -12 20 -23 14 -168 174
-168 185 0 5 -21 31 -46 57 -25 25 -67 73 -92 106 -25 33 -66 83 -91 111 -58
65 -110 136 -128 174 -3 8 -19 28 -35 44 -15 17 -28 34 -28 39 0 5 -13 26 -30
47 -16 21 -30 45 -30 53 0 8 -7 20 -15 27 -8 7 -15 20 -15 30 0 10 -7 23 -15
30 -8 7 -15 20 -15 30 0 10 -7 23 -15 30 l-15 12 0 35 0 34 -15 5 -15 6 0 24
c0 13 -8 43 -17 66 l-18 43 0 191 1 192 11 13 c6 8 14 28 17 46 4 17 14 37 22
44 8 6 14 22 14 34 0 12 7 28 15 35 8 7 15 17 15 22 0 6 14 27 30 48 17 21 30
42 30 48 0 22 183 182 208 182 5 0 15 7 22 15 l12 15 33 0 33 0 12 15 c7 8 27
15 44 15 17 1 42 7 56 15 l25 14 145 0 145 0 50 -17 c28 -10 60 -23 72 -30 12
-7 29 -12 38 -12 25 0 131 -76 187 -135 49 -52 66 -76 87 -122 5 -11 15 -24
20 -28 l11 -6 0 -53 0 -54 16 -13 17 -14 -4 -210 -4 -210 23 -3 c26 -4 52 13
52 35 0 7 5 19 10 26 6 7 24 28 40 47 16 19 30 42 30 50 0 8 14 28 30 44 17
16 30 34 30 40 0 6 18 31 41 56 22 25 63 73 91 108 27 34 53 62 56 62 4 1 38
30 76 65 37 35 84 74 103 87 l34 23 -6 34 -6 34 -42 50 c-67 80 -159 177 -170
177 -5 0 -26 14 -47 30 -21 17 -43 30 -48 30 -6 0 -15 6 -19 13 -4 6 -25 21
-47 32 -21 11 -41 25 -43 32 -3 7 -15 13 -27 13 -12 0 -31 7 -42 15 -10 8 -26
15 -35 15 -9 0 -22 7 -29 15 l-12 15 -33 0 -33 0 -12 15 -12 15 -57 0 -57 0
-20 15 -19 14 -55 1 -55 1 -25 14 -25 14 -215 0 -215 0 -25 -14z m-859 -1347
c1 -7 1 -18 0 -25 -1 -7 8 -17 19 -23 l20 -11 0 -24 c0 -13 5 -27 10 -30 6 -3
10 -21 10 -39 l0 -33 24 -26 c13 -14 27 -39 31 -56 3 -16 13 -35 21 -42 8 -6
14 -17 14 -23 0 -6 13 -24 29 -39 l29 -28 7 -36 c3 -19 17 -45 29 -57 13 -11
26 -31 30 -44 4 -13 22 -37 39 -55 52 -53 94 -112 106 -150 7 -20 21 -43 30
-49 10 -7 27 -30 38 -50 24 -45 63 -88 81 -88 l12 0 1 -27 c0 -16 3 -22 6 -15
2 6 12 12 20 12 l15 0 -6 -25 -6 -24 16 -13 c37 -30 154 -154 154 -163 0 -5
23 -34 51 -63 27 -29 59 -70 70 -91 10 -20 32 -47 48 -59 16 -12 44 -46 61
-77 l32 -56 33 -16 33 -16 15 -38 c9 -22 22 -39 29 -39 30 0 118 -117 118
-158 l0 -20 20 -5 c22 -6 25 -13 35 -69 l6 -36 34 -21 34 -20 15 -35 c8 -20
20 -36 25 -36 6 0 26 -35 46 -77 20 -43 44 -87 54 -98 10 -11 18 -30 19 -43 0
-12 8 -37 16 -54 9 -17 16 -42 16 -55 0 -12 9 -32 20 -43 l20 -20 0 -49 0 -49
14 -11 14 -12 1 -79 0 -78 -14 -6 -15 -5 0 -105 0 -105 10 -6 10 -6 -12 -19
-12 -20 12 -12 c20 -20 14 -37 -33 -87 l-45 -48 21 -15 22 -14 -12 -23 -13
-23 -18 17 -18 16 -7 -11 c-3 -6 -4 -24 0 -40 l7 -30 -17 -7 -17 -6 -10 17
c-12 22 -28 11 -28 -20 0 -27 -17 -33 -27 -8 -5 15 19 73 45 106 l14 16 -21
12 -21 11 3 108 2 109 -19 20 -19 21 -1 45 c0 24 -4 48 -8 52 -5 4 -8 14 -8
22 0 7 -8 26 -19 40 -10 15 -21 41 -24 57 -16 81 -36 157 -45 168 -5 7 -13 23
-17 37 -4 14 -17 52 -30 85 -12 33 -28 80 -36 103 l-13 44 -33 25 -32 25 -30
63 -30 62 6 21 5 20 -39 18 c-42 20 -102 80 -103 104 0 8 -21 34 -45 58 l-45
44 0 24 0 24 -21 18 c-11 9 -29 32 -40 50 -12 17 -26 32 -33 32 -6 0 -23 14
-36 31 -14 17 -32 38 -41 48 -8 10 -18 25 -22 34 -3 9 -14 17 -24 17 l-18 1
-25 40 c-23 37 -64 79 -147 151 -17 14 -34 40 -38 56 -3 16 -19 42 -34 58 -44
45 -81 105 -81 130 l0 24 -25 16 c-14 9 -25 22 -25 29 0 8 -34 48 -75 90 l-74
77 -10 34 c-5 19 -21 48 -35 65 -14 17 -26 41 -26 54 l0 24 -20 11 c-11 6 -20
19 -20 30 0 10 -5 22 -10 25 l-10 6 21 18 22 17 -32 13 -31 13 0 24 c0 13 -9
41 -20 61 l-20 38 0 50 c0 28 -5 56 -12 63 l-11 11 -3 118 -3 117 22 22 22 22
28 1 27 1 1 -12z m-960 -3048 l-4 -175 -16 -12 -16 -12 18 -6 17 -7 0 -24 0
-23 20 -11 20 -11 0 -124 0 -125 -22 0 -23 0 3 55 c2 31 1 63 -3 73 l-6 17
-15 -19 c-22 -31 -39 20 -36 114 l1 35 -20 18 c-24 23 -24 33 1 54 23 20 26
49 6 60 l-14 8 -3 78 -4 79 33 34 32 34 -6 24 c-7 31 2 48 24 44 l17 -3 -4
-175z m2484 -250 c3 -5 3 -26 -1 -45 l-6 -36 -22 3 -21 3 -3 22 -3 22 18 20
c21 22 29 25 38 11z"/>
<path d="M6090 6815 l-25 -14 -81 -1 -82 0 -35 -15 -36 -15 -68 0 -68 -1 -19
-14 -20 -15 -50 0 -51 -1 -19 -14 c-11 -8 -36 -15 -55 -15 -20 -1 -47 -7 -61
-15 -14 -8 -44 -14 -66 -15 l-42 0 -12 -15 c-7 -8 -25 -15 -40 -15 -15 0 -33
-7 -40 -15 -7 -8 -24 -15 -39 -15 -14 0 -35 -7 -45 -15 -11 -8 -33 -15 -49
-15 -15 0 -35 -7 -43 -15 -9 -8 -26 -15 -38 -15 -13 0 -29 -7 -36 -15 -7 -8
-23 -15 -35 -15 -12 0 -28 -7 -35 -15 -7 -8 -18 -15 -25 -15 -12 0 -52 -18
-95 -42 -8 -4 -22 -11 -30 -14 -8 -3 -22 -10 -30 -15 -8 -5 -39 -20 -67 -34
-29 -15 -55 -30 -58 -36 -4 -5 -14 -9 -25 -9 -10 0 -20 -7 -24 -15 -3 -8 -13
-15 -21 -15 -9 0 -42 -19 -73 -42 -66 -49 -89 -64 -117 -77 -11 -5 -31 -19
-44 -32 -13 -12 -44 -38 -70 -57 -82 -63 -265 -224 -296 -260 -16 -20 -51 -59
-76 -86 -52 -58 -139 -171 -139 -181 0 -4 -13 -24 -30 -45 -16 -21 -30 -41
-30 -45 0 -4 -18 -34 -40 -67 -22 -33 -40 -65 -40 -71 0 -14 -67 -136 -85
-154 -8 -8 -15 -27 -15 -41 0 -15 -6 -36 -13 -47 -7 -11 -21 -49 -31 -85 -9
-36 -22 -78 -27 -95 -5 -16 -14 -84 -20 -150 l-9 -120 9 -125 c11 -151 30
-223 81 -310 5 -8 11 -22 15 -30 22 -55 152 -198 200 -221 11 -5 40 -21 64
-34 24 -14 52 -25 62 -25 10 0 22 -7 27 -16 l9 -16 144 -1 144 -1 53 18 c56
20 112 64 112 89 0 18 -46 57 -66 57 -45 0 -184 111 -184 148 0 7 -7 15 -15
18 -8 4 -15 17 -15 30 0 12 -7 27 -15 32 -9 4 -17 19 -20 32 -3 13 -12 28 -20
33 l-16 9 6 43 7 43 -19 38 -18 39 0 140 0 140 18 25 17 24 0 71 1 70 14 19
c8 11 15 32 15 47 0 14 7 32 15 39 8 7 15 25 15 40 0 15 7 33 15 40 8 7 15 23
15 35 0 12 7 28 15 35 8 7 15 20 15 30 0 10 7 23 15 30 8 7 15 23 15 35 0 13
7 25 15 29 8 3 15 14 15 24 0 11 7 25 15 32 8 7 15 17 15 22 0 5 27 45 60 88
33 43 60 83 60 89 0 14 240 251 255 251 7 0 15 4 17 8 7 17 181 152 218 169 8
3 31 19 51 35 20 15 41 28 47 28 5 0 12 7 16 15 3 8 14 15 24 15 11 0 25 7 32
15 7 8 18 15 25 15 7 0 18 7 25 15 7 8 23 15 35 15 12 0 28 7 35 15 7 8 20 15
30 15 10 0 23 7 30 15 7 8 20 15 30 15 10 0 23 7 30 15 l12 15 33 0 33 0 12
15 c7 8 20 15 29 15 10 0 26 7 37 15 10 8 31 15 45 15 15 0 32 7 39 15 l12 15
37 0 c20 0 45 7 55 15 11 8 31 15 45 15 14 1 37 7 51 15 l25 14 56 1 55 0 20
15 19 14 60 1 60 1 25 14 25 14 300 0 300 0 25 -14 c14 -8 44 -14 66 -15 l42
0 12 -15 12 -15 42 0 c22 0 50 -7 60 -15 11 -8 30 -15 42 -15 12 0 24 -7 28
-15 3 -8 14 -15 24 -15 65 0 362 -238 362 -290 0 -4 7 -10 15 -14 8 -3 15 -13
15 -23 0 -10 14 -31 30 -47 l30 -29 0 -22 c0 -13 7 -28 15 -35 l15 -12 0 -38
0 -38 15 -12 15 -12 0 -37 c0 -20 7 -45 15 -55 l15 -20 0 -240 -1 -241 -14
-25 c-8 -14 -14 -46 -15 -71 l0 -47 -15 -12 -15 -12 0 -42 c0 -22 -7 -50 -15
-60 -8 -11 -15 -36 -15 -57 l0 -37 -15 -6 c-8 -3 -15 -14 -15 -24 0 -11 -7
-25 -15 -32 l-15 -12 0 -35 0 -34 -15 -5 c-8 -4 -15 -14 -15 -24 0 -10 -7 -23
-15 -30 -8 -7 -15 -20 -15 -30 0 -10 -7 -23 -15 -30 -8 -7 -15 -17 -15 -22 0
-53 -360 -425 -450 -465 -8 -3 -31 -19 -51 -35 -20 -15 -44 -28 -52 -28 -8 0
-17 -7 -21 -15 -3 -8 -14 -15 -24 -15 -11 0 -25 -7 -32 -15 -7 -8 -21 -15 -32
-15 -10 0 -21 -7 -24 -15 -4 -8 -16 -15 -29 -15 -12 0 -28 -7 -35 -15 -7 -8
-20 -15 -29 -15 -10 0 -26 -7 -37 -15 -10 -8 -31 -15 -45 -15 -15 0 -32 -7
-39 -15 l-12 -15 -37 0 c-21 0 -46 -7 -57 -15 -10 -8 -30 -15 -44 -15 -14 0
-34 -6 -45 -14 l-20 -13 -258 -5 -259 -5 -14 14 c-19 19 -18 26 6 53 11 13 20
29 20 35 0 7 7 18 15 25 8 7 15 23 15 35 0 13 13 56 30 96 16 41 30 83 30 94
1 11 7 31 15 45 8 14 14 35 15 46 0 12 6 27 14 33 8 6 16 24 19 39 5 28 21 77
42 127 28 68 45 113 61 165 22 73 37 112 68 188 14 35 26 71 26 80 0 10 9 34
20 55 11 20 20 43 20 51 0 7 7 19 15 26 l15 12 0 38 0 38 15 6 c8 3 15 16 15
29 0 13 7 32 15 43 8 10 15 29 15 42 0 12 7 25 15 28 l15 6 0 39 0 40 15 5 c8
4 15 16 15 29 0 12 7 28 15 35 8 7 15 22 15 34 0 11 7 30 15 40 8 11 15 30 15
42 0 12 7 27 15 34 8 7 15 18 15 25 0 7 7 18 15 25 8 7 15 22 15 34 0 11 16
39 36 61 20 21 43 53 50 70 23 55 216 264 272 294 12 6 22 20 22 30 l0 19 -36
27 -36 28 -57 -6 c-31 -3 -69 -12 -86 -21 -16 -9 -40 -16 -51 -16 -12 0 -27
-7 -34 -15 -7 -8 -25 -15 -40 -15 -15 0 -33 -7 -40 -15 -7 -8 -27 -15 -44 -15
-17 0 -40 -7 -50 -15 -11 -8 -30 -15 -42 -15 -12 0 -27 -7 -34 -15 -7 -8 -25
-15 -40 -15 l-28 0 -6 -15 -5 -15 -34 0 -35 0 -12 -15 c-7 -8 -20 -15 -30 -15
-10 0 -23 -7 -30 -15 l-12 -15 -33 0 -33 0 -12 -15 -12 -15 -33 0 -33 0 -12
-15 c-7 -8 -23 -15 -35 -15 -12 0 -28 -7 -35 -15 l-12 -15 -38 0 -38 0 -12
-15 c-7 -8 -23 -15 -35 -15 -12 0 -28 -7 -35 -15 -7 -8 -23 -15 -35 -15 -12 0
-28 -7 -35 -15 l-12 -15 -33 0 -33 0 -12 -15 c-7 -8 -23 -15 -36 -15 -12 0
-25 -4 -28 -9 -3 -4 -20 -11 -38 -15 -18 -3 -42 -16 -55 -28 l-23 -21 0 -26 0
-25 65 -61 65 -62 0 -130 0 -131 -15 -12 -15 -12 0 -38 0 -38 -15 -12 c-8 -7
-15 -25 -15 -40 0 -15 -7 -33 -15 -40 l-15 -12 0 -43 0 -43 -15 -12 c-8 -7
-15 -25 -15 -40 0 -15 -7 -33 -15 -40 -8 -7 -15 -22 -15 -34 -1 -11 -7 -32
-15 -46 -8 -14 -14 -36 -15 -48 0 -13 -6 -36 -13 -50 -8 -15 -21 -42 -30 -60
-9 -19 -17 -47 -17 -63 0 -16 -20 -79 -45 -140 -25 -61 -45 -120 -45 -131 0
-11 -6 -32 -14 -46 -24 -48 -46 -102 -46 -116 0 -8 -7 -27 -15 -42 -8 -16 -15
-38 -15 -49 0 -29 -32 -109 -47 -118 -7 -4 -13 -20 -13 -35 0 -15 -7 -36 -15
-46 -8 -11 -15 -34 -15 -52 l0 -32 -15 -12 c-8 -7 -15 -21 -15 -32 0 -10 -7
-21 -15 -24 l-15 -6 0 -37 c0 -20 -7 -45 -15 -55 -8 -11 -15 -32 -15 -47 0
-14 -7 -32 -15 -39 l-15 -12 0 -32 c0 -18 -7 -41 -15 -52 -8 -10 -15 -33 -15
-50 0 -17 -7 -37 -15 -44 -8 -7 -15 -25 -15 -40 0 -15 -7 -33 -15 -40 l-15
-12 0 -33 0 -33 -15 -12 -15 -12 0 -33 0 -33 -15 -12 c-8 -7 -15 -23 -15 -35
0 -12 -7 -28 -15 -35 l-15 -12 0 -45 0 -44 -15 -5 c-8 -4 -15 -16 -15 -28 0
-12 -7 -31 -15 -42 -8 -10 -15 -29 -15 -42 0 -13 -5 -33 -12 -45 -6 -12 -15
-35 -19 -52 -11 -43 -37 -117 -49 -137 -6 -10 -10 -28 -10 -41 0 -13 -7 -32
-15 -43 -8 -10 -15 -30 -15 -44 0 -14 -14 -49 -30 -79 -17 -30 -30 -60 -30
-67 0 -14 -13 -44 -62 -150 -15 -33 -28 -66 -28 -72 0 -7 -20 -41 -45 -78 -25
-36 -45 -72 -45 -80 0 -8 -6 -17 -14 -20 -8 -3 -17 -13 -20 -22 -3 -9 -9 -24
-14 -32 -5 -8 -14 -24 -20 -35 -7 -11 -16 -30 -22 -42 -5 -13 -14 -23 -19 -23
-5 0 -11 -10 -15 -23 -3 -12 -47 -65 -98 -117 l-93 -95 -62 -32 c-35 -18 -72
-33 -82 -33 -11 0 -23 -4 -26 -10 -3 -5 -21 -10 -38 -10 -18 0 -42 -3 -53 -6
l-22 -6 -17 -38 -18 -39 15 -36 14 -36 828 -1 828 -1 14 28 c30 59 12 118 -41
131 l-30 7 -46 48 -47 48 -4 58 c-2 32 -11 79 -18 105 l-14 47 17 54 17 54 0
65 0 66 15 12 15 12 0 37 c0 20 7 45 15 55 8 11 15 34 15 52 l0 32 15 12 c8 7
15 27 15 44 0 17 7 40 15 50 8 11 15 30 15 42 0 12 7 27 15 34 8 7 15 24 15
39 0 14 7 35 15 45 8 11 15 31 15 45 0 14 7 35 15 45 8 11 15 29 15 40 0 12 7
30 15 40 8 11 15 32 15 47 0 14 11 52 25 83 14 31 25 62 25 69 1 7 9 30 20 52
11 22 19 48 20 57 0 17 20 69 46 120 8 14 14 37 14 50 0 12 7 32 15 42 8 11
15 34 15 52 l0 32 15 6 c8 3 15 16 15 28 0 13 7 32 15 42 l15 20 0 50 1 51 14
19 c8 11 15 28 15 38 0 10 4 26 9 36 5 9 13 29 19 43 l10 26 146 6 c81 4 159
4 174 1 l28 -6 17 -30 c9 -16 17 -35 17 -43 0 -7 7 -18 15 -25 8 -7 15 -24 15
-39 0 -14 7 -35 15 -45 8 -11 15 -27 15 -37 0 -9 7 -19 15 -23 l15 -5 0 -24
c0 -14 7 -30 15 -37 8 -7 15 -25 15 -40 0 -15 7 -33 15 -40 8 -7 15 -20 15
-30 0 -10 7 -23 15 -30 8 -7 15 -22 15 -34 0 -12 7 -31 15 -42 8 -10 15 -29
15 -42 0 -12 7 -25 15 -28 8 -4 15 -16 15 -29 0 -12 7 -28 15 -35 8 -7 15 -23
15 -37 l0 -24 15 -5 c8 -4 15 -14 15 -24 0 -10 6 -23 14 -29 7 -6 21 -33 31
-59 10 -26 24 -54 31 -63 8 -8 14 -23 14 -32 0 -9 4 -18 9 -22 6 -3 21 -29 36
-58 14 -28 37 -72 49 -97 13 -25 27 -52 30 -60 3 -8 15 -28 25 -45 18 -28 50
-88 65 -125 3 -8 15 -28 26 -45 11 -16 24 -39 30 -50 6 -11 19 -33 30 -50 11
-16 24 -39 30 -50 15 -31 31 -55 78 -117 23 -31 42 -61 42 -67 0 -5 11 -22 25
-37 14 -15 28 -38 31 -51 4 -13 10 -23 14 -23 4 0 19 -17 32 -37 14 -21 36
-49 49 -63 35 -37 89 -107 89 -114 0 -4 17 -24 38 -45 20 -21 55 -60 77 -86
22 -27 70 -79 106 -115 36 -36 71 -75 78 -87 6 -13 17 -23 24 -23 6 0 30 -18
52 -39 108 -105 151 -141 167 -141 9 0 21 -6 25 -13 11 -17 89 -77 100 -77 5
0 23 -13 39 -30 16 -16 34 -30 41 -30 6 0 27 -13 45 -30 18 -16 41 -30 51 -30
9 0 20 -7 23 -15 4 -8 12 -15 19 -15 6 0 31 -14 53 -30 23 -17 48 -30 56 -30
7 0 19 -7 26 -15 7 -8 20 -15 30 -15 10 0 23 -7 30 -15 7 -8 20 -15 30 -15 10
0 23 -7 30 -15 7 -8 23 -15 35 -15 12 0 28 -7 35 -15 7 -8 23 -15 35 -15 12 0
28 -7 35 -15 7 -8 23 -15 35 -15 12 0 28 -7 35 -15 7 -8 25 -15 40 -15 15 0
33 -7 40 -15 7 -8 23 -15 35 -15 12 0 28 -7 35 -15 l12 -15 38 0 38 0 12 -15
c7 -8 27 -15 44 -15 17 0 40 -7 50 -15 l20 -15 47 0 47 0 12 -15 12 -15 57 0
c31 0 72 -5 91 -11 19 -7 71 -15 115 -19 44 -4 98 -13 120 -19 l40 -11 285 1
285 0 25 14 25 14 61 1 62 0 35 15 c20 8 56 15 79 15 24 1 54 7 68 15 14 8 39
15 55 15 17 0 39 7 49 15 11 8 31 15 45 15 14 0 35 7 45 15 11 8 32 15 47 15
14 0 32 7 39 15 7 8 23 15 35 15 12 0 28 7 35 15 7 8 22 15 34 15 11 0 30 7
40 15 11 8 27 15 37 15 9 0 19 7 23 15 l5 15 24 0 c14 0 30 7 37 15 7 8 16 15
21 15 4 0 37 20 73 45 37 25 69 45 72 45 7 0 84 58 99 75 6 6 33 28 60 49 77
58 235 214 235 233 0 4 13 22 28 38 29 32 92 130 92 144 0 4 9 16 20 26 11 10
20 24 20 30 0 7 7 18 15 25 8 7 15 19 15 28 0 8 7 23 15 32 l15 17 -6 17 c-3
9 -12 16 -19 16 -7 0 -18 7 -25 15 l-12 15 -39 0 -38 0 -26 -27 c-14 -15 -25
-33 -25 -39 0 -29 -241 -269 -335 -334 -27 -19 -54 -41 -58 -48 -4 -6 -15 -12
-22 -12 -8 0 -15 -4 -15 -10 0 -5 -7 -10 -15 -10 -8 0 -23 -9 -32 -20 -10 -11
-28 -20 -40 -20 -13 0 -23 -4 -23 -9 0 -11 -75 -51 -94 -51 -7 0 -19 -7 -26
-15 -7 -8 -19 -15 -28 -15 -19 0 -100 -38 -108 -51 -3 -5 -20 -9 -37 -9 -18 0
-41 -7 -51 -15 -11 -8 -34 -15 -50 -15 -17 0 -40 -7 -50 -15 -11 -8 -34 -15
-50 -15 -17 0 -40 -7 -50 -15 l-20 -15 -80 0 -81 -1 -19 -14 -20 -15 -231 0
-231 0 -20 15 -19 14 -76 1 -75 0 -20 15 c-10 8 -33 15 -50 15 -16 0 -39 7
-50 15 -10 8 -38 15 -60 15 l-42 0 -12 15 -12 15 -33 0 -33 0 -12 15 c-7 8
-23 15 -35 15 -13 0 -25 7 -29 15 l-5 15 -29 0 c-16 0 -35 7 -42 15 -7 8 -21
15 -31 15 -9 0 -24 6 -31 12 -18 16 -49 36 -68 44 -44 18 -143 71 -152 81 -6
7 -18 13 -28 13 -9 0 -30 13 -46 30 -16 16 -35 30 -43 30 -8 0 -34 17 -58 38
-25 20 -55 44 -68 52 -59 39 -216 174 -314 270 -40 39 -136 149 -193 221 -20
25 -48 56 -62 70 -14 13 -26 31 -26 39 0 9 -13 27 -29 41 -15 14 -31 34 -35
45 -3 12 -24 41 -46 65 -22 24 -40 51 -40 59 0 8 -12 26 -26 40 -14 13 -30 33
-35 45 -14 32 -33 59 -46 68 -7 4 -13 17 -13 27 0 10 -6 23 -13 27 -7 4 -21
27 -32 50 -11 24 -23 43 -27 43 -3 0 -18 21 -33 48 -15 26 -44 72 -63 102 -41
62 -68 110 -112 195 -43 82 -56 105 -69 118 -6 6 -11 20 -11 30 0 11 -13 39
-30 64 -16 24 -30 48 -30 52 0 5 -7 14 -15 21 -8 7 -15 23 -15 36 0 12 -5 26
-10 29 -9 6 -34 55 -101 203 -13 28 -27 52 -31 52 -5 0 -8 13 -8 29 0 16 -7
34 -15 41 -8 7 -15 18 -15 25 0 7 -7 18 -15 25 -8 7 -15 23 -15 37 l0 24 -15
5 c-8 4 -15 15 -15 25 0 22 -34 90 -72 143 l-28 39 0 32 0 32 18 16 c10 10 27
17 38 17 10 0 32 7 48 15 15 8 43 15 60 15 18 0 41 7 52 15 10 8 31 15 45 15
15 0 32 7 39 15 7 8 24 15 39 15 14 0 35 7 45 15 11 8 27 15 37 15 9 0 22 7
29 15 7 8 20 15 30 15 10 0 23 7 30 15 7 8 22 15 34 15 12 0 27 5 33 11 13 13
30 23 100 59 26 14 52 31 56 37 4 7 17 13 27 13 10 0 23 6 27 14 4 8 33 31 63
51 66 44 130 109 161 165 l23 40 37 0 37 0 21 -34 21 -33 0 -47 0 -47 20 -37
c56 -103 92 -148 208 -254 17 -16 37 -28 45 -28 8 0 20 -7 27 -15 7 -8 21 -15
32 -15 10 0 21 -7 24 -15 4 -8 16 -15 28 -15 11 -1 32 -7 46 -15 l25 -14 172
-1 172 0 38 17 c21 9 57 25 81 36 l42 19 0 22 c0 28 -29 56 -57 56 -11 0 -26
7 -33 15 -7 8 -19 15 -26 15 -41 0 -214 140 -214 173 0 5 -13 32 -30 59 -16
26 -30 57 -30 67 0 11 -7 26 -15 35 -8 8 -15 28 -15 43 0 16 -7 38 -15 49
l-14 19 -1 51 c0 28 -7 71 -15 94 l-15 43 0 122 0 123 15 35 15 36 0 63 1 63
14 19 15 20 0 41 0 41 15 20 c8 10 15 33 15 50 0 17 7 37 15 44 8 7 15 22 15
34 0 11 7 30 15 40 8 11 15 30 15 43 0 21 20 77 41 113 5 8 19 35 31 60 55
108 205 322 238 340 11 6 20 15 20 19 0 8 85 93 210 212 60 56 151 120 193
135 9 3 17 10 17 15 0 5 10 14 23 19 12 6 36 19 52 30 17 11 37 22 45 26 44
17 100 46 105 55 4 5 17 9 29 9 13 0 29 7 36 15 7 8 25 15 40 15 l28 0 6 15
c3 8 14 15 24 15 10 0 27 7 38 15 10 8 28 15 39 15 12 0 26 5 33 12 6 6 30 14
54 18 41 7 66 15 141 42 17 6 63 13 102 16 l69 4 20 14 20 14 66 0 c36 1 83 7
105 15 l40 15 188 0 188 0 36 -15 c19 -8 54 -15 77 -15 23 0 50 -6 61 -14 11
-7 40 -16 65 -19 50 -5 114 -27 132 -45 7 -7 22 -12 34 -12 13 0 26 -5 29 -11
4 -5 17 -14 28 -20 117 -50 357 -275 357 -334 0 -8 7 -18 15 -21 8 -4 15 -12
15 -19 0 -7 7 -18 15 -25 8 -7 15 -25 15 -40 0 -15 7 -33 15 -40 l15 -12 0
-35 0 -34 15 -5 15 -6 0 -33 c0 -18 7 -49 15 -68 l15 -36 0 -288 0 -288 -15
-40 c-8 -22 -14 -62 -15 -90 l-1 -50 -14 -19 c-8 -11 -15 -36 -15 -56 0 -20
-7 -45 -15 -56 -8 -10 -15 -28 -15 -39 0 -11 -7 -29 -15 -39 -8 -11 -15 -27
-15 -37 0 -9 -7 -22 -15 -29 -8 -7 -15 -22 -15 -34 0 -12 -7 -31 -15 -42 -8
-10 -15 -29 -15 -41 0 -13 -5 -23 -10 -23 -6 0 -15 -10 -21 -22 -15 -35 -36
-70 -46 -77 -10 -8 -30 -39 -43 -68 -5 -13 -14 -23 -20 -23 -5 0 -10 -5 -10
-11 0 -18 -88 -127 -143 -177 -29 -26 -66 -62 -84 -79 -17 -18 -35 -33 -40
-33 -5 0 -23 -13 -41 -30 -18 -16 -37 -30 -42 -30 -4 0 -10 -6 -13 -14 -3 -7
-25 -23 -49 -35 -45 -23 -67 -34 -95 -51 -10 -6 -25 -13 -33 -16 -8 -3 -22
-10 -30 -15 -8 -5 -22 -12 -30 -15 -26 -10 -84 -36 -112 -51 -14 -7 -39 -13
-56 -13 -16 0 -35 -7 -42 -15 l-12 -15 -37 0 c-21 0 -46 -7 -57 -15 -10 -8
-37 -15 -60 -15 -22 0 -49 -7 -60 -15 l-19 -14 -242 -1 -242 0 -15 22 -15 22
19 31 c11 18 20 43 20 56 0 13 7 33 15 43 8 11 15 32 15 47 0 14 7 32 15 39 8
7 15 24 15 39 0 14 7 35 15 45 8 11 15 33 15 48 0 16 4 36 10 46 13 23 37 91
62 177 11 39 29 93 41 120 28 71 67 194 67 216 0 10 4 20 9 24 5 3 12 18 16
34 3 16 13 35 21 42 8 6 14 26 14 44 l0 33 15 12 c8 7 15 25 15 40 0 15 7 33
15 40 8 7 15 23 15 35 0 12 7 28 15 35 l15 12 0 37 c0 20 7 45 15 55 8 11 15
34 15 52 l0 32 15 12 c8 7 15 23 15 35 0 12 7 28 15 35 8 7 15 25 15 40 0 16
7 42 15 59 8 17 22 45 30 62 8 17 15 39 15 49 0 9 7 23 15 30 8 7 15 23 15 35
0 12 7 28 15 35 8 7 15 20 15 29 0 9 7 25 15 35 8 11 15 30 15 43 0 13 3 23 8
23 4 0 19 21 35 48 15 26 33 56 40 67 60 96 220 273 274 301 l38 20 3 23 4 23
-24 25 -23 25 -78 -6 -78 -5 -22 -16 c-12 -8 -33 -15 -48 -15 -15 0 -32 -7
-39 -15 -7 -8 -25 -15 -40 -15 -15 0 -33 -7 -40 -15 l-12 -15 -33 0 -33 0 -12
-15 c-7 -8 -23 -15 -35 -15 -12 0 -28 -7 -35 -15 -7 -8 -23 -15 -35 -15 -12 0
-28 -7 -35 -15 l-12 -15 -32 0 c-18 0 -41 -7 -52 -15 -10 -8 -26 -15 -35 -15
-9 0 -22 -7 -29 -15 -7 -8 -26 -15 -42 -15 l-29 0 -5 -15 -6 -15 -38 0 -38 0
-12 -15 c-7 -8 -23 -15 -35 -15 -12 0 -28 -7 -35 -15 l-12 -15 -33 0 -33 0
-12 -15 c-7 -8 -22 -15 -34 -15 -11 0 -30 -7 -40 -15 -11 -8 -29 -15 -40 -15
-12 0 -30 -7 -40 -15 -11 -8 -30 -15 -42 -15 -12 0 -35 -6 -51 -14 -37 -19
-73 -33 -99 -41 -11 -3 -31 -16 -44 -30 l-23 -25 9 -20 c5 -11 31 -35 59 -52
27 -18 55 -44 61 -56 6 -13 17 -29 23 -35 l11 -11 0 -63 0 -64 -15 -36 c-8
-19 -15 -50 -15 -68 l0 -33 -15 -12 -15 -12 0 -38 0 -38 -15 -12 -15 -12 0
-43 0 -43 -15 -12 c-8 -7 -15 -25 -15 -40 0 -15 -7 -33 -15 -40 l-15 -12 0
-38 0 -38 -15 -12 c-8 -7 -15 -25 -15 -40 0 -15 -7 -33 -15 -40 -8 -7 -15 -25
-15 -39 0 -15 -7 -36 -15 -47 -8 -10 -15 -33 -15 -50 0 -16 -7 -39 -15 -50 -8
-10 -15 -31 -15 -45 0 -15 -7 -32 -15 -39 l-15 -12 0 -32 c0 -18 -7 -41 -15
-52 -8 -10 -15 -34 -15 -51 0 -18 -13 -61 -29 -95 -16 -35 -32 -79 -36 -98 -4
-19 -18 -58 -31 -85 -13 -28 -35 -95 -49 -149 -14 -54 -32 -111 -40 -126 -8
-16 -15 -37 -15 -47 0 -10 -6 -28 -14 -39 -8 -11 -17 -37 -21 -57 -4 -20 -13
-41 -21 -48 -8 -6 -14 -24 -14 -39 0 -15 -7 -33 -15 -40 -8 -7 -15 -25 -15
-39 0 -15 -7 -36 -15 -47 -8 -10 -15 -36 -15 -57 l0 -38 -15 -5 c-8 -4 -15
-16 -15 -29 0 -12 -7 -28 -15 -35 l-15 -12 0 -37 c0 -20 -7 -45 -15 -55 -8
-11 -15 -30 -15 -42 0 -12 -7 -27 -15 -34 -8 -7 -15 -25 -15 -40 0 -15 -7 -33
-15 -40 l-15 -12 0 -42 0 -42 -15 -20 c-8 -10 -15 -33 -15 -50 0 -17 -7 -37
-15 -44 l-15 -12 0 -33 0 -33 -15 -12 c-8 -7 -15 -25 -15 -40 0 -15 -7 -33
-15 -40 -8 -7 -15 -25 -15 -40 0 -15 -7 -33 -15 -40 l-15 -12 0 -48 0 -48 -15
-12 c-8 -7 -15 -23 -15 -35 0 -12 -7 -28 -15 -35 l-15 -12 0 -32 c0 -18 -7
-41 -15 -52 -8 -10 -15 -29 -15 -41 0 -12 -13 -45 -30 -73 -16 -28 -30 -54
-30 -58 0 -10 -59 -123 -73 -142 -7 -8 -20 -29 -29 -46 -18 -32 -43 -64 -111
-139 l-37 -42 6 -31 6 -32 32 -29 c101 -97 172 -161 179 -161 5 0 35 -20 67
-45 32 -25 65 -45 73 -45 8 0 20 -7 27 -15 7 -8 18 -15 25 -15 7 0 18 -6 24
-13 l11 -14 202 -8 c112 -5 235 -9 273 -8 39 0 109 1 157 2 l87 1 21 22 c40
43 22 92 -45 123 -22 10 -57 37 -77 59 l-38 41 0 200 1 200 14 25 c8 14 14 35
15 47 0 12 8 36 17 55 31 61 33 67 39 110 4 24 18 66 32 93 13 28 28 66 32 85
10 44 29 97 46 132 8 14 14 38 14 51 0 14 4 28 9 32 5 3 13 20 17 37 3 18 10
39 15 48 27 51 49 109 49 127 0 12 7 23 15 27 l15 5 0 54 0 55 15 12 c8 7 15
25 15 40 0 15 7 33 15 40 8 7 15 27 15 44 1 17 7 42 15 56 8 14 14 37 15 51 0
14 7 34 15 45 8 10 15 33 15 49 0 17 7 38 15 49 l14 18 -5 28 -6 27 17 17 17
17 106 -7 107 -7 27 -13 27 -14 249 0 250 0 35 15 c20 8 62 15 94 15 l58 1 25
14 25 14 61 1 60 0 20 15 19 14 56 1 57 0 12 15 c7 8 27 15 44 15 17 0 40 7
50 15 11 8 34 15 52 15 l32 0 12 15 c7 8 25 15 40 15 15 0 33 7 40 15 7 8 20
15 30 15 10 0 23 7 30 15 7 8 23 15 35 15 12 0 28 7 35 15 7 8 23 15 37 15
l24 0 5 15 c4 8 15 15 26 15 11 0 26 7 34 15 9 8 24 15 35 15 10 0 19 5 19 10
0 6 10 15 23 20 43 19 112 61 122 73 11 13 102 77 111 77 3 0 17 13 32 29 15
16 47 44 72 63 87 66 214 211 284 323 11 17 25 34 33 38 7 4 13 13 13 19 0 5
14 27 30 48 17 21 30 45 30 53 0 8 7 20 15 27 8 7 15 20 15 30 0 10 7 23 15
30 8 7 15 18 15 25 0 7 7 18 15 25 8 7 15 24 15 39 0 14 7 35 15 45 8 11 15
27 15 37 0 9 7 22 15 29 l15 12 0 32 c0 18 7 41 15 52 l14 19 1 45 1 45 14 19
15 20 0 67 0 66 15 43 15 43 0 112 0 113 -15 35 -15 36 0 64 0 63 -15 20 -14
19 -1 51 0 52 -15 12 c-8 7 -15 25 -15 40 0 15 -7 33 -15 40 -8 7 -15 22 -15
34 0 12 -7 31 -15 42 -8 10 -15 31 -15 45 l0 27 -15 6 c-8 3 -15 14 -15 24 0
10 -5 23 -11 29 -14 14 -36 52 -45 76 -3 9 -10 17 -15 17 -6 0 -13 10 -18 23
-17 45 -279 307 -308 307 -5 0 -20 13 -33 30 -14 16 -30 29 -37 30 -7 0 -32
14 -56 30 -25 17 -49 30 -55 30 -5 0 -15 7 -22 15 -7 8 -23 15 -35 15 -12 0
-28 7 -35 15 -7 8 -23 15 -35 15 -12 0 -28 7 -35 15 -7 8 -23 15 -35 15 -13 0
-25 7 -29 15 l-5 15 -39 0 -40 0 -12 15 -12 15 -33 0 -33 0 -12 15 -12 15 -37
0 c-20 0 -45 7 -55 15 l-20 15 -63 0 -64 0 -36 15 -35 15 -67 0 -66 1 -25 14
-25 14 -265 0 -265 0 -25 -14 -25 -14 -71 -1 -72 0 -35 -15 -36 -15 -63 0 -63
-1 -25 -14 c-14 -8 -45 -15 -70 -15 l-45 -1 -19 -14 c-11 -8 -32 -15 -47 -15
-15 0 -40 -7 -55 -15 -16 -8 -48 -15 -70 -15 l-42 0 -6 -15 -5 -15 -29 0 c-16
0 -35 -7 -42 -15 -7 -8 -22 -15 -34 -15 -11 0 -30 -7 -40 -15 -11 -8 -32 -15
-47 -15 -14 0 -32 -7 -39 -15 -7 -8 -23 -15 -35 -15 -13 0 -25 -7 -29 -15 -3
-8 -13 -15 -23 -15 -20 0 -100 -38 -109 -51 -3 -5 -13 -9 -23 -9 -10 0 -24 -7
-31 -15 -7 -8 -21 -15 -31 -15 -11 0 -19 -4 -19 -9 0 -5 -12 -14 -27 -20 -16
-6 -41 -20 -58 -31 -16 -11 -39 -24 -50 -30 -24 -13 -46 -27 -102 -63 -24 -15
-45 -27 -47 -27 -3 0 -20 -13 -38 -30 -18 -16 -37 -30 -43 -30 -5 0 -69 -57
-141 -127 l-131 -128 -21 -41 c-11 -22 -37 -55 -57 -72 l-36 -32 -30 0 -30 0
-3 13 c-12 43 -27 126 -26 148 0 15 -7 32 -15 39 -8 7 -15 23 -15 35 0 12 -7
28 -15 35 -8 7 -15 17 -15 22 0 33 -296 348 -327 348 -5 0 -23 14 -41 30 -18
17 -37 30 -41 30 -4 0 -27 14 -49 30 -23 17 -49 30 -57 30 -9 0 -18 7 -21 15
l-6 15 -27 0 c-14 0 -35 7 -45 15 -11 8 -27 15 -37 15 -9 0 -22 7 -29 15 -7 8
-23 15 -37 15 l-24 0 -5 15 -6 15 -38 0 -38 0 -12 15 -12 15 -35 0 -34 0 -5
15 -6 15 -42 0 -42 0 -20 15 -19 14 -68 1 -68 0 -36 15 -35 15 -72 0 -71 1
-25 14 -25 14 -260 0 -260 0 -25 -14z m5815 -856 l-6 -19 15 -6 c9 -3 16 -16
16 -28 0 -32 11 -39 31 -20 l18 16 23 -25 c13 -13 33 -27 44 -31 l22 -7 12
-32 c22 -57 41 -102 51 -120 l10 -19 -6 -29 -7 -29 15 -6 15 -5 12 -102 c7
-56 17 -107 22 -114 l9 -11 -11 -7 c-13 -8 -13 -62 0 -70 12 -8 13 -68 1 -81
-12 -13 -20 -111 -9 -122 l8 -8 -11 -60 c-6 -32 -17 -71 -25 -86 -8 -14 -14
-35 -14 -46 0 -10 -11 -40 -24 -65 -14 -25 -26 -58 -28 -74 l-3 -28 -27 -3
c-33 -4 -37 -19 -8 -24 12 -2 21 -6 20 -10 0 -5 0 -19 0 -33 l0 -25 -22 -10
c-13 -5 -36 -11 -52 -15 l-28 -6 6 -40 6 -39 -15 -30 -16 -30 -24 0 c-14 0
-25 5 -25 10 0 6 -8 10 -17 10 l-18 -1 19 -14 19 -14 -6 -16 c-4 -8 -11 -15
-17 -15 -5 0 -10 -7 -10 -15 0 -19 -29 -65 -41 -65 -5 0 -18 9 -29 20 l-20 20
0 54 0 54 15 6 15 5 -6 58 -6 58 16 64 15 63 20 20 c24 22 26 31 9 57 l-12 19
17 16 c9 9 14 23 11 30 -3 8 -1 17 5 21 14 8 14 58 0 72 l-12 12 27 24 26 24
0 24 c0 13 -7 33 -15 43 -20 27 -19 31 11 45 l26 12 -7 27 c-4 15 -9 66 -11
114 l-3 87 9 6 10 6 -9 17 c-4 9 -11 60 -14 112 -3 52 -11 119 -18 149 l-11
54 16 9 c20 11 21 37 2 44 l-15 6 6 48 6 48 -22 11 c-23 13 -26 27 -11 65 l9
26 16 -6 16 -6 -6 -19z m-4101 -21 c16 -18 35 -48 43 -65 7 -18 19 -33 26 -33
7 0 28 -16 47 -35 19 -19 39 -35 46 -35 6 0 18 -10 26 -22 l15 -22 37 2 36 3
7 -17 6 -17 -16 -12 -17 -12 18 -15 c9 -9 31 -22 47 -30 l30 -14 -3 -16 c-1
-9 7 -23 19 -32 l22 -15 -6 -23 -6 -24 14 -22 15 -21 -15 -8 c-8 -5 -18 -18
-20 -29 -29 -118 -49 -183 -62 -203 -21 -32 -53 -178 -74 -336 -6 -49 -16
-101 -21 -115 -5 -14 -9 -86 -9 -161 l1 -136 -15 -13 c-9 -7 -20 -21 -26 -31
l-9 -19 12 -20 13 -20 -28 -25 c-15 -14 -27 -31 -27 -38 0 -7 -9 -1 -19 12
l-18 24 -12 -7 -12 -8 -50 26 c-27 15 -54 24 -60 20 -5 -3 -15 -1 -22 4 -7 5
-26 13 -42 16 l-30 7 -20 -15 -20 -14 -17 15 -17 15 -13 -21 c-18 -29 -37 -26
-70 11 -31 35 -35 56 -13 64 8 4 15 16 15 28 0 11 11 42 25 68 14 26 25 57 25
69 0 12 7 30 15 39 9 10 19 35 22 56 l6 39 29 33 c30 35 36 58 16 64 l-11 4
23 31 23 32 -6 35 -6 36 10 5 c5 4 9 19 9 35 0 16 4 31 9 35 5 3 9 18 9 33 0
15 5 47 12 72 7 25 14 61 17 81 l5 37 -11 6 c-14 9 -14 63 -1 71 l10 6 0 138
0 137 -12 12 -11 11 11 25 c13 30 6 95 -13 116 l-15 16 2 65 1 64 11 7 c6 4
22 8 36 8 l26 0 28 -32z m-1973 -398 l19 -11 0 -22 c0 -13 5 -28 11 -34 l12
-12 -29 -26 -28 -26 12 -19 12 -19 -23 -23 c-13 -13 -29 -31 -36 -40 l-12 -17
10 -19 10 -19 -20 -19 c-32 -29 -60 -103 -66 -176 l-6 -66 -12 4 c-18 7 -50
-34 -51 -67 -1 -17 -9 -38 -19 -49 -9 -10 -14 -23 -10 -29 3 -6 -1 -27 -11
-46 l-16 -35 10 -13 10 -12 -14 -19 c-7 -10 -11 -22 -9 -26 6 -10 -21 -77 -34
-84 -5 -4 -14 -29 -20 -56 -6 -28 -20 -63 -32 -79 l-21 -28 13 -20 12 -20 -16
-24 c-10 -13 -17 -33 -17 -44 0 -12 -11 -32 -24 -44 -13 -13 -27 -34 -31 -48
l-6 -25 16 -25 16 -24 -6 -19 c-6 -19 -17 -25 -39 -21 -4 1 -17 -1 -27 -4
l-19 -6 0 -24 0 -24 25 -25 26 -26 -17 -32 c-9 -18 -23 -40 -31 -49 l-14 -17
21 -15 22 -15 -4 -49 c-2 -26 -6 -55 -9 -63 l-4 -14 23 -11 c28 -12 28 -16 -3
-61 l-25 -37 6 -19 5 -18 -26 -10 c-37 -14 -85 -61 -85 -82 0 -10 -6 -18 -12
-18 -28 -1 -88 -79 -88 -114 0 -7 -13 -26 -30 -42 l-29 -29 -1 -37 c0 -20 -4
-39 -9 -42 -5 -3 -12 -18 -15 -32 -4 -15 -20 -43 -36 -63 l-30 -37 4 -46 3
-47 -27 -21 -27 -21 1 -44 c0 -24 4 -47 8 -51 9 -9 -20 -62 -47 -86 l-20 -18
18 -10 17 -11 0 -24 0 -25 -25 -6 c-14 -3 -25 -10 -25 -15 0 -5 -11 -9 -25 -9
l-25 0 0 -14 c0 -8 6 -16 13 -19 l12 -4 -14 -39 c-8 -21 -21 -45 -30 -51 l-16
-13 12 -7 c6 -5 14 -20 18 -34 l6 -25 -19 -55 c-11 -29 -23 -67 -26 -82 -4
-15 -15 -35 -26 -45 -11 -9 -20 -23 -20 -32 0 -8 -7 -28 -15 -44 -8 -15 -15
-34 -15 -42 0 -7 -13 -28 -30 -46 -16 -18 -33 -47 -36 -65 l-6 -32 22 -46 23
-46 -12 -12 c-6 -6 -11 -21 -11 -34 0 -13 -4 -23 -9 -23 -9 0 -15 -27 -27
-123 -4 -26 -11 -50 -15 -53 -12 -7 -11 -71 1 -95 l11 -19 -10 0 c-6 0 -18
-14 -27 -32 -9 -18 -23 -38 -30 -46 -8 -7 -14 -16 -14 -20 0 -4 -56 -7 -125
-7 l-124 0 -15 20 -16 20 -6 -23 c-7 -25 -15 -27 -32 -10 -17 17 -15 25 8 31
l21 5 -3 61 -2 61 12 12 c7 7 12 22 12 34 0 12 10 34 22 49 l22 28 1 40 1 40
23 18 22 18 16 -6 16 -6 -6 44 -6 44 45 92 c24 50 44 100 44 111 0 10 9 27 20
37 11 10 20 26 20 36 0 9 16 40 35 69 19 29 35 56 35 60 0 4 7 14 16 21 l16
13 -6 37 -6 37 21 5 22 6 -7 17 -6 17 17 13 18 13 -12 20 -12 19 13 11 13 11
1 46 c1 25 6 52 12 59 6 7 8 24 5 37 l-6 23 15 37 c9 20 20 39 25 42 5 4 15
32 22 64 7 31 18 64 26 73 7 8 13 21 13 27 0 7 6 12 13 12 6 1 22 9 34 19 l23
19 -6 30 -6 30 22 12 22 12 -5 33 -5 32 20 34 21 34 2 55 1 55 18 33 17 33 -6
18 -6 18 26 52 c15 28 30 49 35 46 13 -8 24 15 13 26 l-10 10 11 47 11 48 27
28 c14 16 29 42 32 57 3 16 16 43 28 60 13 17 24 45 25 62 4 58 11 104 18 126
l7 22 15 -5 c8 -3 19 -3 24 0 l10 6 -12 14 -12 15 12 22 c7 12 25 31 41 42 37
25 37 30 0 44 l-30 10 20 33 c11 18 20 40 20 49 0 9 12 33 26 54 l25 38 -5 22
-6 22 34 66 c19 36 31 68 28 71 -3 4 2 12 12 19 l18 13 3 48 c2 27 8 53 14 59
6 6 11 23 11 38 0 15 4 30 9 34 5 3 9 18 9 33 0 43 22 125 39 144 l15 17 4 70
c4 79 19 147 35 157 l10 6 -3 72 -3 71 19 0 c11 0 21 7 23 15 3 8 7 21 9 29
l5 14 11 -11 c20 -20 28 -14 22 16 l-6 28 16 13 16 13 16 -13 16 -13 14 19 c8
10 14 25 14 33 l0 14 17 -6 16 -7 19 21 c21 22 49 26 79 10z m4171 -62 c29
-29 35 -52 18 -63 l-9 -6 5 -28 6 -29 -18 1 -19 2 3 -37 3 -37 -21 -11 -21
-11 7 -35 6 -34 -16 -25 c-9 -13 -16 -29 -16 -36 l0 -11 15 6 15 5 0 -14 c0
-8 -13 -24 -30 -37 l-30 -22 0 -37 0 -38 -34 -26 -35 -26 1 -28 c1 -16 -6 -38
-15 -51 -8 -12 -13 -28 -10 -35 l5 -13 -21 -11 -21 -11 7 -45 6 -44 -21 -39
-21 -40 6 -21 5 -20 -38 -78 c-22 -43 -51 -90 -66 -106 l-27 -27 2 -49 1 -49
-32 -28 -32 -28 0 -45 0 -44 -15 -17 -16 -17 11 -27 10 -27 -9 -40 c-5 -22 -7
-48 -4 -59 3 -11 0 -27 -7 -35 l-12 -14 7 -20 6 -19 -11 -7 -10 -6 0 -89 0
-89 10 -6 c6 -3 10 -27 10 -52 l0 -46 -21 -33 c-11 -19 -25 -34 -30 -34 -16 0
-59 -51 -59 -70 0 -9 -11 -22 -25 -28 l-24 -11 -7 -28 c-10 -50 -13 -53 -44
-59 l-30 -6 0 -18 c0 -10 -7 -23 -16 -31 l-16 -13 17 -12 17 -13 -15 -21 -14
-21 4 -44 5 -44 -21 -34 c-12 -19 -28 -38 -36 -41 l-15 -5 7 -17 6 -16 -37
-32 -36 -33 0 -22 c0 -12 -5 -32 -11 -43 l-11 -20 11 -11 c6 -6 11 -29 11 -50
l0 -39 -25 -20 c-14 -11 -25 -28 -25 -39 0 -11 -9 -37 -20 -59 -11 -22 -20
-55 -20 -73 0 -50 -47 -127 -77 -127 l-13 0 0 -40 0 -39 -21 -11 -20 -11 3
-28 c1 -16 -4 -36 -11 -45 -14 -16 -11 -18 23 -20 30 -2 28 -20 -4 -38 l-30
-17 0 -20 c0 -11 -5 -23 -10 -26 l-11 -7 10 -11 c5 -7 8 -37 7 -68 l-1 -57
-13 -15 -13 -16 6 -45 7 -46 -16 0 -16 0 0 -46 c0 -25 -5 -54 -10 -65 l-11
-19 9 -16 9 -17 -11 -28 -10 -29 -18 0 c-10 0 -27 -6 -38 -12 l-20 -13 -17 11
c-10 6 -18 20 -18 30 l0 19 -39 3 -38 3 -34 37 -34 37 7 20 c4 11 7 36 8 55 0
40 36 115 60 123 8 4 15 15 15 25 0 11 7 25 15 32 8 7 15 20 15 30 0 10 7 23
15 30 8 6 13 21 12 33 l-2 21 20 4 c11 2 24 8 28 12 l9 8 -16 24 -16 25 20 18
c24 22 26 48 5 65 l-15 13 16 24 16 25 -6 23 -6 23 16 6 c9 3 26 6 39 6 13 0
27 5 31 12 l7 11 -16 12 c-10 7 -17 22 -17 33 0 11 -5 24 -10 27 l-11 7 26 26
c15 14 29 39 32 54 3 15 9 28 14 28 5 0 9 17 9 38 0 20 7 50 15 65 8 16 17 51
21 78 l7 51 23 9 24 9 0 62 0 63 16 30 c9 17 16 42 15 57 l-1 28 21 21 20 20
-3 32 -3 32 30 5 30 6 -3 26 c-1 15 6 46 17 70 10 24 22 57 26 73 3 17 10 48
16 70 5 22 12 60 16 85 3 25 14 56 24 69 11 13 19 35 19 50 0 14 9 40 20 56
11 17 20 37 20 46 0 9 7 19 15 23 8 3 15 14 15 24 0 11 7 25 15 32 8 7 15 20
15 29 0 9 5 22 10 27 6 6 13 39 15 74 3 35 10 69 15 74 6 6 10 18 10 28 0 11
9 36 20 57 10 21 17 41 14 43 -2 3 0 17 5 31 l10 25 23 4 23 3 3 18 c2 10 -3
26 -12 36 l-16 17 12 12 c7 7 20 12 31 12 l19 0 -2 28 c-1 15 -2 33 -1 40 l1
12 40 0 40 0 0 33 -1 32 -14 -19 -14 -19 -14 6 -15 5 4 59 c4 79 8 100 17 109
4 4 7 18 7 30 0 13 6 27 14 31 20 12 46 68 46 100 0 16 9 46 20 67 10 22 17
43 14 48 -3 5 4 24 15 43 l20 35 -5 29 -6 28 21 15 21 15 -6 56 -7 55 16 32
16 31 -5 29 -6 28 11 6 c6 4 11 27 11 51 l0 43 30 33 c17 17 29 37 27 43 -3 6
-1 21 4 34 l8 22 20 0 c11 0 23 5 26 11 11 18 48 27 84 21 l35 -5 28 -29z
m1749 -1127 l2 -53 -16 -15 -16 -16 -16 13 -15 13 15 23 c8 13 15 31 15 39 0
19 20 59 26 52 2 -2 5 -28 5 -56z m-5397 -836 l-6 -35 15 0 c8 0 18 8 22 18
l6 17 25 -50 c13 -27 24 -55 24 -62 0 -6 5 -24 11 -40 7 -15 13 -59 16 -97 l4
-69 23 -28 c13 -15 26 -45 29 -66 l7 -39 25 -24 c14 -13 34 -43 46 -67 11 -23
24 -43 29 -43 4 0 10 -20 12 -45 l5 -44 32 -37 32 -36 -6 -18 -6 -19 26 -17
c29 -19 59 -69 50 -84 -3 -6 5 -20 19 -33 l25 -23 12 -48 12 -47 28 -22 29
-21 0 -22 c0 -13 5 -26 10 -29 6 -4 10 -12 9 -18 -3 -26 3 -38 50 -97 l49 -61
18 -60 19 -60 21 -5 22 -6 6 -38 6 -39 20 -11 c11 -6 20 -19 20 -29 0 -10 7
-24 15 -31 8 -7 15 -19 15 -27 0 -7 7 -16 16 -20 l15 -6 -5 -23 -6 -24 18 0
c24 0 49 -27 63 -68 6 -18 20 -37 30 -43 10 -5 19 -16 19 -24 0 -8 9 -19 21
-25 l20 -11 -12 -15 -12 -15 9 -8 c5 -5 18 -11 29 -13 l20 -3 4 -25 c1 -14 13
-35 26 -48 13 -12 25 -31 28 -42 l5 -20 -20 -11 -20 -11 36 -34 c20 -19 36
-43 36 -53 0 -22 35 -55 49 -47 5 3 21 2 35 -4 l26 -10 0 -19 c0 -25 -23 -43
-46 -35 -50 17 -147 69 -152 82 l-5 15 26 19 c45 33 16 56 -32 26 -26 -16 -49
-4 -57 29 -8 34 -74 105 -91 99 -6 -3 -17 2 -23 10 -7 8 -23 14 -36 14 l-24 0
0 14 c0 8 5 18 10 21 6 3 10 12 10 19 l0 14 -30 6 c-16 3 -30 11 -30 18 -1 7
-14 29 -30 48 l-30 34 0 30 0 30 -22 23 c-12 13 -28 23 -37 23 -18 0 -61 39
-61 56 0 8 -13 27 -30 44 -16 17 -30 36 -30 44 0 7 -10 22 -23 34 -13 12 -29
37 -36 55 -7 18 -23 37 -34 43 l-21 9 -7 34 c-4 19 -16 42 -27 50 -25 20 -42
53 -42 81 0 11 -7 23 -15 26 l-15 6 0 30 0 29 -17 -5 -18 -5 -17 38 c-10 20
-18 43 -18 49 0 6 -6 17 -13 24 -7 7 -23 34 -36 61 l-23 47 6 16 6 16 -27 59
-27 59 -18 0 -18 0 -10 26 c-6 14 -10 41 -10 60 l0 35 -15 5 c-8 4 -15 15 -15
25 l0 19 -24 10 -25 9 -7 38 c-4 21 -22 67 -41 102 l-34 64 6 29 7 28 -16 6
-16 6 0 23 0 23 -16 6 -16 6 6 17 6 16 -16 19 -17 18 -3 76 c-1 41 -7 81 -13
88 -13 15 -5 26 20 26 10 0 22 8 28 17 l9 17 41 -3 41 -3 0 11 c0 6 9 11 20
11 l21 0 -7 -35z m1446 -2374 c0 -5 -10 -12 -22 -15 l-23 -6 16 -13 c26 -20
52 -66 45 -82 l-5 -15 -25 12 c-14 6 -28 19 -31 29 -3 9 -12 20 -20 23 -8 3
-15 15 -15 26 0 11 -7 23 -15 26 -8 4 -12 10 -9 15 7 12 104 12 104 0z"/>
</g>
</svg>
