<svg version="1.0" xmlns="http://www.w3.org/2000/svg" width="423.000000pt" height="238.000000pt" viewBox="0 0 423.000000 238.000000" preserveAspectRatio="xMidYMid meet" style="width: 736.283px; height: auto;"> <g transform="translate(0.000000,238.000000) scale(0.100000,-0.100000)" fill="#0142fe" stroke="none"> <path d="M774 2265 c-200 -43 -347 -201 -376 -404 -21 -145 26 -269 182 -475 40 -53 89 -112 109 -133 88 -90 164 -206 206 -314 20 -49 25 -81 25 -149 0 -77 -4 -93 -33 -155 -36 -74 -79 -120 -150 -157 -35 -20 -57 -23 -137 -22 -85 0 -100 3 -142 28 -55 32 -105 85 -125 135 -21 51 -28 168 -13 245 20 105 92 187 188 211 25 7 48 17 50 24 6 19 -64 41 -135 41 -57 0 -80 -6 -138 -33 -267 -129 -288 -511 -36 -671 85 -55 136 -73 238 -88 210 -30 435 47 569 196 92 103 129 212 122 368 -4 84 -10 117 -34 179 -45 111 -98 184 -352 486 -53 62 -99 129 -125 183 -37 76 -42 93 -42 155 1 58 6 79 30 124 51 93 117 131 227 131 68 0 113 -18 156 -62 40 -42 52 -82 52 -170 0 -38 3 -68 8 -68 4 0 23 24 42 52 19 29 61 79 93 111 l58 58 -26 35 c-93 122 -300 181 -491 139z"></path> <path d="M1960 2264 c-99 -15 -150 -28 -242 -60 -227 -79 -418 -228 -510 -398 -65 -119 -72 -144 -72 -251 -1 -92 1 -104 27 -148 18 -29 47 -60 75 -79 41 -26 54 -29 105 -26 35 3 64 11 74 20 14 15 13 18 -15 32 -81 42 -114 146 -88 281 12 61 89 215 134 265 96 109 297 218 471 255 103 22 260 20 340 -5 155 -47 231 -154 231 -328 0 -192 -91 -364 -243 -460 -101 -64 -192 -92 -298 -92 -49 0 -89 1 -89 3 0 1 23 67 51 147 28 80 57 164 64 186 7 23 18 50 24 60 5 11 25 57 43 104 38 99 82 173 133 224 36 37 39 56 6 56 -35 0 -464 -163 -469 -178 -2 -6 6 -19 17 -29 36 -30 27 -88 -45 -307 -36 -111 -79 -232 -94 -271 -16 -38 -62 -169 -103 -290 -93 -274 -101 -294 -153 -380 -52 -86 -97 -130 -149 -148 -28 -10 -41 -21 -43 -35 l-3 -22 275 0 c271 0 276 0 276 20 0 12 -12 32 -27 45 -26 21 -28 29 -27 92 0 57 12 101 68 268 38 110 69 205 70 210 1 6 7 20 14 32 7 12 11 26 10 30 -2 4 3 22 10 40 12 27 19 32 60 35 26 3 54 1 62 -3 8 -4 37 -58 64 -121 61 -138 182 -369 238 -451 42 -61 163 -204 208 -244 49 -45 201 -145 258 -170 148 -66 313 -103 461 -103 144 0 328 53 438 126 69 46 152 132 185 192 25 45 26 51 11 56 -12 5 -33 -10 -73 -53 -188 -197 -483 -255 -750 -147 -249 101 -453 328 -645 717 -36 73 -71 139 -77 146 -6 7 -7 13 -3 13 3 0 -3 16 -15 36 -13 20 -19 39 -14 44 5 4 34 15 64 25 86 27 211 96 252 138 41 43 68 44 68 3 0 -35 58 -106 109 -133 52 -27 124 -30 179 -7 35 15 36 16 18 30 -11 8 -25 14 -31 14 -6 0 -26 14 -43 31 -39 38 -72 138 -72 218 0 77 32 200 75 287 49 101 172 217 287 273 140 68 274 97 404 89 176 -12 281 -82 337 -226 21 -53 23 -243 3 -318 -53 -198 -201 -349 -393 -398 -75 -20 -223 -22 -222 -3 1 26 195 582 218 625 6 12 8 22 4 22 -4 0 -3 4 3 8 5 4 20 23 32 44 12 20 41 53 63 73 52 47 42 65 -26 47 -59 -16 -417 -152 -429 -163 -6 -5 1 -19 17 -33 17 -16 27 -36 27 -53 0 -28 -80 -287 -153 -498 -19 -55 -73 -213 -120 -351 -91 -268 -103 -298 -148 -355 -16 -20 -29 -40 -29 -43 0 -11 65 -69 109 -97 43 -28 50 -29 163 -29 102 0 118 2 118 16 0 9 -11 25 -25 36 -23 18 -25 27 -25 92 0 59 8 94 44 198 24 69 45 129 48 134 3 5 20 58 38 117 l34 108 110 -6 c155 -10 313 18 448 78 188 84 336 255 379 437 15 66 15 186 0 254 -39 165 -167 295 -349 352 -135 42 -291 53 -432 30 -240 -40 -418 -123 -548 -254 -73 -75 -102 -86 -102 -41 0 35 -46 104 -102 153 -144 127 -399 181 -658 140z" class=""></path> </g> </svg>